<svg width="47" height="47" viewBox="0 0 47 47" fill="none" xmlns="http://www.w3.org/2000/svg">
<g clip-path="url(#clip0_34_3)">
<path d="M35.2073 8.3855C33.7187 8.3855 32.5145 9.61515 32.5145 11.1351C32.5145 12.6551 33.7187 13.8848 35.2073 13.8848C36.6959 13.8848 37.9001 12.6551 37.9001 11.1351C37.9001 9.61515 36.6959 8.3855 35.2073 8.3855Z" fill="currentColor"/>
<path d="M23.1984 11.9209C16.943 11.9209 11.8584 17.1128 11.8584 23.5001C11.8584 29.8875 16.943 35.0793 23.1984 35.0793C29.4537 35.0793 34.5383 29.8875 34.5383 23.5001C34.5383 17.1128 29.4537 11.9209 23.1984 11.9209ZM23.1984 30.9122C19.201 30.9122 15.9395 27.5819 15.9395 23.5001C15.9395 19.4184 19.201 16.088 23.1984 16.088C27.1958 16.088 30.4573 19.4184 30.4573 23.5001C30.4573 27.5819 27.1958 30.9122 23.1984 30.9122Z" fill="currentColor"/>
<path d="M32.1967 47H13.832C6.20519 47 0 40.6639 0 32.8761V14.1239C0 6.33612 6.20519 0 13.832 0H32.2134C39.8403 0 46.0455 6.33612 46.0455 14.1239V32.8932C46.0455 40.681 39.8403 47.0171 32.2134 47.0171L32.1967 47ZM13.832 4.42333C8.59694 4.42333 4.33192 8.77834 4.33192 14.1239V32.8932C4.33192 38.2387 8.59694 42.5938 13.832 42.5938H32.2134C37.4486 42.5938 41.7136 38.2387 41.7136 32.8932V14.1239C41.7136 8.77834 37.4486 4.42333 32.2134 4.42333H13.832Z" fill="currentColor"/>
</g>
<defs>
<clipPath id="clip0_34_3">
<rect width="46.0288" height="47" fill="currentColor"/>
</clipPath>
</defs>
</svg>
