<svg width="122" height="144" viewBox="0 0 122 144" fill="none" xmlns="http://www.w3.org/2000/svg">
<g clip-path="url(#clip0_80_30)">
<path d="M91.4845 52.3047V38.8076C91.4845 37.3027 90.2594 36.082 88.7492 36.082H74.4257V5.45129H86.387C86.9135 5.4768 99.3318 6.33311 99.3318 22.9093C99.3318 24.4142 100.557 25.6349 102.067 25.6349C103.577 25.6349 104.802 24.4142 104.802 22.9093C104.802 1.22071 86.855 0.0145756 86.5259 0H34.9219C33.4117 0 32.1867 1.22071 32.1867 2.72564C32.1867 4.23058 33.4117 5.45129 34.9219 5.45129H51.1908V36.0747H38.809C37.2988 36.0747 36.0738 37.2954 36.0738 38.8004V52.2974C22.734 59.2463 13.6031 73.1661 13.6031 89.1738V92.2856C13.6031 93.7906 14.8281 95.0113 16.3383 95.0113C17.8486 95.0113 19.0736 93.7906 19.0736 92.2856V89.1738C19.0736 69.2489 35.3424 53.0371 55.3375 53.0371H72.2171C92.2122 53.0371 108.481 69.2489 108.481 89.1738V138.538H68.9004C67.3902 138.538 66.1651 139.758 66.1651 141.263C66.1651 142.768 67.3902 143.989 68.9004 143.989H111.216C112.726 143.989 113.951 142.768 113.951 141.263V89.181C113.951 73.1697 104.821 59.25 91.4771 52.301L91.4845 52.3047ZM56.6649 5.45493H68.9479V36.0783H56.6649V5.45493ZM55.3375 47.5895C50.5033 47.5895 45.8666 48.4203 41.5443 49.9325V41.5333H86.0067V49.9325C81.688 48.4203 77.0476 47.5895 72.2134 47.5895H55.3339H55.3375Z" fill="#853F81"/>
<path d="M83.3811 112.003C81.8709 112.003 80.6459 113.224 80.6459 114.728C80.6459 116.233 81.8709 117.454 83.3811 117.454H95.9676C97.4779 117.454 98.7029 116.233 98.7029 114.728V89.4798C98.7029 87.9749 97.4779 86.7542 95.9676 86.7542H76.9928C75.4825 86.7542 74.2575 87.9749 74.2575 89.4798C74.2575 90.9847 75.4825 92.2054 76.9928 92.2054H93.2287V111.999H83.3775L83.3811 112.003Z" fill="#853F81"/>
<path d="M110.017 36.8071C103.409 36.8071 98.03 42.1637 98.03 48.7519C98.03 55.34 103.405 60.6966 110.017 60.6966C116.628 60.6966 122.004 55.34 122.004 48.7519C122.004 42.1637 116.628 36.8071 110.017 36.8071ZM110.017 55.238C106.426 55.238 103.504 52.3265 103.504 48.7482C103.504 45.1699 106.426 42.2584 110.017 42.2584C113.608 42.2584 116.53 45.1699 116.53 48.7482C116.53 52.3265 113.608 55.238 110.017 55.238Z" fill="#853F81"/>
<path d="M18.174 144H46.3493C63.3933 144 77.2634 130.179 77.2634 113.194C77.2634 96.2101 63.3933 82.3888 46.3493 82.3888C31.1189 82.3888 18.4154 93.2112 15.8959 107.922C6.94782 109.04 0 116.671 0 125.89C0 135.878 8.15089 144 18.174 144ZM18.0278 113.227C19.5161 113.337 20.8946 112.243 21.0373 110.771C22.2806 97.7005 33.1667 87.8437 46.3529 87.8437C60.3802 87.8437 71.7929 99.2164 71.7929 113.194C71.7929 127.172 60.3802 138.545 46.3529 138.545H18.174C11.1714 138.545 5.47415 132.868 5.47415 125.89C5.47415 118.912 11.1714 113.234 18.0278 113.231V113.227Z" fill="#853F81"/>
</g>
<defs>
<clipPath id="clip0_80_30">
<rect width="122" height="144" fill="white"/>
</clipPath>
</defs>
</svg>
