<svg width="37" height="42" viewBox="0 0 37 42" fill="none" xmlns="http://www.w3.org/2000/svg">
<path d="M36.0091 16.9933C35.6593 17.0201 35.323 17.047 34.9733 17.047C31.1801 17.047 27.6424 15.1409 25.5709 11.9732V29.2349C25.5709 36.2819 19.8406 42 12.7787 42C5.71679 42 0 36.2819 0 29.2349C0 22.1879 5.73024 16.4832 12.7922 16.4832C13.0612 16.4832 13.3168 16.5101 13.5858 16.5235V22.8054C13.3302 22.7785 13.0612 22.7248 12.7922 22.7248C9.18722 22.7248 6.26829 25.6376 6.26829 29.2349C6.26829 32.8322 9.18722 35.745 12.7922 35.745C16.3971 35.745 19.5851 32.9128 19.5851 29.3154L19.6523 0H25.6785C26.2434 5.39597 30.6017 9.61074 36.0225 10V16.9933" fill="currentColor"/>
</svg>
