<svg width="141" height="141" viewBox="0 0 141 141" fill="none" xmlns="http://www.w3.org/2000/svg">
<g clip-path="url(#clip0_80_35)">
<path d="M22.4395 138.217C22.4395 139.754 23.6875 141 25.2262 141H37.7294C39.2681 141 40.5162 139.754 40.5162 138.217C40.5162 136.68 39.2681 135.434 37.7294 135.434H28.013V124.457H34.164C35.7027 124.457 36.9508 123.211 36.9508 121.674C36.9508 120.138 35.7027 118.891 34.164 118.891H27.7038C25.9788 104.343 17.1155 32.6391 6.95576 5.57764H79.8364C75.7085 16.5689 71.3308 36.1515 66.8042 63.9273C66.5583 65.4454 67.5903 66.8779 69.1066 67.1235C70.6304 67.384 72.0611 66.3384 72.307 64.8241C77.2918 34.2576 82.2134 13.2165 86.5388 3.97397C86.9449 3.11075 86.8779 2.10241 86.3675 1.29871C85.8571 0.495017 84.9666 0.00759133 84.0129 0.00759133H2.79051C1.83675 0.000149713 0.946329 0.487576 0.435918 1.29127C-0.0744925 2.09496 -0.141554 3.1033 0.264539 3.96281C11.434 27.8243 21.9514 117.604 22.4395 121.827V138.213V138.217Z" fill="#853E81"/>
<path d="M60.1428 58.2269C60.1428 38.0899 52.9449 22.9016 43.4035 22.9016C33.8622 22.9016 26.6643 38.0899 26.6643 58.2269C26.6643 78.3639 33.8622 93.5522 43.4035 93.5522C52.9449 93.5522 60.1428 78.3639 60.1428 58.2269ZM43.4035 87.9822C38.1355 87.9822 32.2416 75.257 32.2416 58.2269C32.2416 41.1968 38.1355 28.4716 43.4035 28.4716C48.6716 28.4716 54.5655 41.1968 54.5655 58.2269C54.5655 75.257 48.6716 87.9822 43.4035 87.9822Z" fill="#853E81"/>
<path d="M86.1066 48.0617C86.1402 48.125 89.4672 54.5508 87.459 59.8269C86.401 62.6063 83.9495 64.716 80.1717 66.0965C67.9964 70.5391 64.7588 80.0569 64.6619 86.4567C56.8307 86.9404 50.6089 93.4555 50.6089 101.396C50.6089 104.994 51.8868 108.298 54.0141 110.88C46.4958 111.676 40.6168 118.046 40.6168 125.763C40.6168 134.016 47.3415 140.732 55.605 140.732H126.016C134.279 140.732 141.004 134.016 141.004 125.763C141.004 118.046 135.125 111.676 127.606 110.88C129.734 108.294 131.012 104.99 131.012 101.396C131.012 93.143 124.287 86.4269 116.023 86.4269H114.392C113.274 49.7844 90.175 44.2442 89.1654 44.0209C88.0998 43.7828 86.9971 44.1921 86.3376 45.059C85.6819 45.926 85.5888 47.098 86.1066 48.058V48.0617ZM92.6712 61.8064C93.9826 58.3572 93.8299 54.7926 93.2449 51.8681C99.4481 55.7824 108.855 65.609 108.855 89.2101C108.855 90.7468 110.103 91.9933 111.642 91.9933H116.02C121.209 91.9933 125.431 96.2089 125.431 101.392C125.431 106.575 121.209 110.791 116.02 110.791C114.481 110.791 113.233 112.037 113.233 113.574C113.233 115.111 114.481 116.357 116.02 116.357H126.012C131.202 116.357 135.423 120.573 135.423 125.756C135.423 130.939 131.202 135.155 126.012 135.155H55.6012C50.4114 135.155 46.1903 130.939 46.1903 125.756C46.1903 120.573 50.4114 116.357 55.6012 116.357H76.6324C78.1711 116.357 79.4191 115.111 79.4191 113.574C79.4191 112.037 78.1711 110.791 76.6324 110.791H65.5934C60.4036 110.791 56.1824 106.575 56.1824 101.392C56.1824 96.2089 60.4036 91.9933 65.5934 91.9933H67.6462C68.4658 91.9933 69.2445 91.6249 69.7735 90.9961C70.3025 90.371 70.5298 89.5375 70.392 88.7264C70.3063 88.2204 68.4584 76.2915 82.0792 71.3205C87.4441 69.3633 91.0096 66.1597 92.6675 61.7989L92.6712 61.8064Z" fill="#853E81"/>
<path d="M108.3 38.3913C115.945 38.3913 122.163 32.1813 122.163 24.5462C122.163 16.9111 115.945 10.701 108.3 10.701C100.655 10.701 94.4371 16.9111 94.4371 24.5462C94.4371 32.1813 100.655 38.3913 108.3 38.3913ZM108.3 16.2674C112.872 16.2674 116.586 19.9807 116.586 24.5425C116.586 29.1042 112.872 32.8175 108.3 32.8175C103.729 32.8175 100.014 29.1042 100.014 24.5425C100.014 19.9807 103.733 16.2674 108.3 16.2674V16.2674Z" fill="#853E81"/>
</g>
<defs>
<clipPath id="clip0_80_35">
<rect width="141" height="141" fill="white"/>
</clipPath>
</defs>
</svg>
