<svg width="125" height="150" viewBox="0 0 125 150" fill="none" xmlns="http://www.w3.org/2000/svg">
<g clip-path="url(#clip0_80_40)">
<path d="M14.1618 89.7176C14.8579 89.7176 15.5576 89.4519 16.0897 88.9206L57.9264 47.1407L65.4883 54.6923C65.9985 55.2019 66.6946 55.4894 67.4162 55.4894C68.1378 55.4894 68.8338 55.2019 69.344 54.6923L82.3907 41.6634C82.9009 41.1539 83.1888 40.4588 83.1888 39.7382C83.1888 39.0176 82.9009 38.3225 82.3907 37.813L80.7362 36.1607L98.2325 18.6881C100.193 16.7301 101.272 14.128 101.272 11.3584C101.272 8.58889 100.193 5.98675 98.2325 4.02877L97.234 3.03158C93.1851 -1.01175 86.5999 -1.01175 82.5547 3.03158L65.0583 20.5042L63.8265 19.2741C62.7624 18.2114 61.035 18.2114 59.9708 19.2741L46.9278 32.2993C45.8637 33.362 45.8637 35.0871 46.9278 36.1498L54.0707 43.2829L12.234 85.0701C11.1698 86.1328 11.1698 87.8579 12.234 88.9206C12.766 89.4519 13.4657 89.7176 14.1618 89.7176ZM68.9176 24.3583L86.414 6.88567C88.2762 5.02959 91.516 5.02959 93.3783 6.88567L94.3768 7.8865C95.3061 8.81453 95.82 10.0483 95.82 11.3621C95.82 12.6759 95.3098 13.9096 94.3768 14.8413L76.8805 32.3139L73.1086 28.5472L68.9176 24.3619V24.3583ZM61.8987 25.0534L69.2529 32.3976L74.9526 38.0896L76.6035 39.7382L67.4162 48.913L52.7114 34.2282L61.8987 25.0534Z" fill="#853E81"/>
<path d="M85.605 44.6659V54.6705C79.4351 54.9908 74.5117 60.0895 74.5117 66.331V136.123C74.5117 142.568 79.7631 147.813 86.2172 147.813H113.291C119.745 147.813 124.996 142.568 124.996 136.123V66.331C124.996 60.0895 120.073 54.9944 113.903 54.6705V44.6659C113.903 43.1629 112.682 41.9437 111.177 41.9437H88.3309C86.8258 41.9437 85.605 43.1629 85.605 44.6659ZM79.9672 73.5188H104.311V128.935H79.9672V73.5188ZM119.544 66.331V136.123C119.544 139.566 116.742 142.365 113.294 142.365H86.2208C82.7733 142.365 79.9708 139.566 79.9708 136.123V134.38H107.044C108.55 134.38 109.77 133.161 109.77 131.658V70.7965C109.77 69.2935 108.55 68.0743 107.044 68.0743H79.9708V66.3347C79.9708 62.8918 82.7733 60.0932 86.2208 60.0932H113.294C116.742 60.0932 119.544 62.8918 119.544 66.3347V66.331ZM91.0605 47.3918H108.451V54.6414H91.0605V47.3918Z" fill="#853E81"/>
<path d="M15.1276 102.75C5.08017 102.75 0 129.467 0 134.893C0 143.223 6.78571 150 15.1276 150C23.4694 150 30.2551 143.223 30.2551 134.893C30.2551 129.463 25.1749 102.746 15.1276 102.746V102.75ZM15.1276 144.552C9.79592 144.552 5.45554 140.221 5.45554 134.893C5.45554 126.621 11.6254 108.195 15.1276 108.195C18.6297 108.195 24.7996 126.617 24.7996 134.893C24.7996 140.217 20.4592 144.552 15.1276 144.552Z" fill="#853E81"/>
<path d="M56.527 103.336C56.527 100.152 53.3564 80.994 45.5284 80.994C37.7004 80.994 34.5335 100.152 34.5335 103.336C34.5335 109.392 39.4679 114.32 45.5284 114.32C51.5889 114.32 56.527 109.392 56.527 103.336ZM45.5284 108.872C42.4745 108.872 39.9891 106.389 39.9891 103.336C39.9891 98.7104 43.3382 87.9052 45.5284 86.5077C47.7187 87.9052 51.0714 98.7104 51.0714 103.336C51.0714 106.389 48.586 108.872 45.5284 108.872Z" fill="#853E81"/>
</g>
<defs>
<clipPath id="clip0_80_40">
<rect width="125" height="150" fill="white"/>
</clipPath>
</defs>
</svg>
